<svg width="47" height="38" viewBox="0 0 47 38" fill="none" xmlns="http://www.w3.org/2000/svg">
<path d="M47 36.2089C46.6991 36.8096 46.3982 37.2225 46.0972 37.4478C45.7211 37.7856 45.1757 37.9546 44.461 37.9546C44.1977 37.9546 43.8968 37.8607 43.5582 37.673L43.1633 37.4478C41.6587 36.6969 40.3045 36.1526 39.1008 35.8147C37.5962 35.4018 35.9506 35.1953 34.1639 35.1953C32.3772 35.1953 30.7691 35.383 29.3397 35.7584C28.1361 36.0963 26.8383 36.6031 25.4466 37.2788L25.108 37.4478C24.7695 37.6355 24.5062 37.7481 24.3181 37.7856C24.0172 37.8983 23.6787 37.9546 23.3025 37.9546C23.0392 37.9546 22.7383 37.8607 22.3998 37.673L22.0048 37.4478C20.5002 36.6969 19.1461 36.1526 17.9424 35.8147C16.4002 35.4018 14.7263 35.1953 12.9208 35.1953C11.6795 35.1953 10.5698 35.2891 9.59184 35.4768C8.76431 35.627 7.82393 35.871 6.77071 36.2089C6.20648 36.3966 5.77391 36.5655 5.47299 36.7157L4.34454 37.2788C3.81793 37.5416 3.2537 37.7575 2.65186 37.9264C2.05002 38.0954 1.5046 37.9734 1.01561 37.5604C0.677071 37.2976 0.357343 36.8471 0.0564226 36.2089L0 20.554C0 10.2676 0.037615 4.93672 0.112845 4.56131C0.263305 4.07327 0.451381 3.71662 0.677071 3.49137C0.902761 3.26612 1.2601 3.0221 1.7491 2.75931C4.08123 1.44535 6.54502 0.619437 9.14046 0.281563L9.81753 0.168938C10.6451 0.0563131 11.2281 6.17212e-07 11.5666 6.17212e-07H13.3157C15.1589 6.17212e-07 16.8892 0.20648 18.5066 0.619437C19.7103 0.882229 21.1208 1.37027 22.7383 2.08356L23.5282 2.42144L24.431 2.02725C25.9732 1.3515 27.4402 0.863458 28.8319 0.563125C30.4494 0.187709 32.2173 6.17212e-07 34.1357 6.17212e-07C35.9412 6.17212e-07 37.5116 0.122011 38.8469 0.366031C40.1823 0.610052 41.5082 1.01362 42.8247 1.57675C43.2385 1.76446 43.7839 2.00848 44.461 2.30881C45.2133 2.72177 45.7023 2.99395 45.928 3.12534C46.1537 3.25674 46.3605 3.43506 46.5486 3.66031C46.7367 3.88556 46.8683 4.11081 46.9436 4.33606C46.9812 4.41114 47 4.73025 47 5.29337V36.2089ZM12.8643 4.67393C11.8864 4.67393 10.7391 4.80533 9.42257 5.06812L8.40696 5.23706C7.65466 5.34968 6.67667 5.66879 5.47299 6.19437L4.79592 6.47593L4.7395 19.2025V31.9292L5.47299 31.6476C7.46659 31.0845 9.04642 30.7278 10.2125 30.5777C10.6263 30.5401 11.5478 30.5213 12.9772 30.5213C14.4066 30.5213 15.5538 30.5777 16.419 30.6903C17.0208 30.8029 17.9612 31.0094 19.2401 31.3097C20.03 31.4974 20.6695 31.7039 21.1585 31.9292V6.53224L20.5378 6.25068C18.4314 5.19952 15.8735 4.67393 12.8643 4.67393ZM34.0228 4.67393C32.5558 4.67393 31.2017 4.80533 29.9604 5.06812C28.9072 5.29337 27.7787 5.66879 26.575 6.19437L25.898 6.47593V31.9292L26.6315 31.6476C28.0984 31.2346 29.2269 30.9531 30.0168 30.8029C31.1829 30.6152 32.5558 30.5213 34.1357 30.5213C35.565 30.5213 36.7123 30.5777 37.5774 30.6903C38.1793 30.8029 39.1196 31.0094 40.3986 31.3097C41.1885 31.4974 41.8279 31.7039 42.3169 31.9292V19.2025L42.2605 6.53224L41.6963 6.25068C39.5898 5.19952 37.032 4.67393 34.0228 4.67393Z" fill="#339933"/>
</svg>
