<svg width="51" height="50" viewBox="0 0 51 50" fill="none" xmlns="http://www.w3.org/2000/svg">
<path d="M17.4294 7.78107C17.9608 7.78107 18.3926 7.91919 18.7247 8.19543C19.0236 8.41029 19.2727 8.74792 19.4719 9.20832L19.5218 10.4054V11.6024H31.9761V10.4054L32.026 9.20832C32.192 8.90139 32.3415 8.67118 32.4743 8.51772C32.6736 8.24147 32.8895 8.07265 33.1219 8.01127L33.7198 7.82711C34.384 7.70433 34.9984 7.90384 35.563 8.42563C35.8287 8.67118 35.9948 8.96277 36.0612 9.3004C36.1276 9.54595 36.1608 10.0064 36.1608 10.6816V11.6024H37.1073C38.2365 11.6024 39.1001 11.6638 39.6979 11.7866C40.4617 11.9401 41.1094 12.2163 41.6407 12.6153L41.9397 12.7995C42.2718 13.045 42.4876 13.2138 42.5873 13.3059C43.0522 13.7356 43.4259 14.196 43.7082 14.6871C43.9905 15.1782 44.198 15.7614 44.3309 16.4367C44.3973 16.9278 44.4305 21.0791 44.4305 28.8906C44.4305 36.7022 44.3973 40.8535 44.3309 41.3446C44.0652 42.603 43.5089 43.6466 42.662 44.4754C41.8151 45.3041 40.7274 45.8412 39.399 46.0868C39.2661 46.1175 38.9672 46.1328 38.5022 46.1328H12.9957C12.5307 46.1328 12.2318 46.1175 12.099 46.0868C11.6672 45.9947 11.1358 45.8105 10.5048 45.5343C8.67815 44.6749 7.54895 43.2783 7.1172 41.3446C7.08399 41.099 7.06738 36.9401 7.06738 28.8676C7.06738 21.0714 7.10059 16.9278 7.16702 16.4367L7.31647 15.654C7.38289 15.3778 7.61538 14.9634 8.01392 14.4109L8.16337 14.1347C8.5287 13.5515 9.05178 13.0527 9.73262 12.6383C10.4135 12.224 11.1524 11.9247 11.9495 11.7406C12.348 11.6485 13.0455 11.6024 14.0418 11.6024H15.3371V10.6816C15.3371 9.7915 15.445 9.14693 15.6609 8.74792C15.8768 8.3489 16.3168 8.04196 16.9811 7.82711C17.0807 7.79641 17.2302 7.78107 17.4294 7.78107ZM14.1913 15.4698C13.2614 15.4698 12.6054 15.5619 12.2235 15.7461C11.8416 15.9302 11.5344 16.2986 11.3019 16.851L11.2521 19.9818V23.1126H40.2459V19.9818L40.196 16.851C39.9636 16.2986 39.648 15.9302 39.2495 15.7461C38.851 15.5619 38.1867 15.4698 37.2568 15.4698H36.1608V16.4367C36.1608 17.1119 36.1276 17.5723 36.0612 17.8179C35.9615 18.1862 35.7789 18.4932 35.5132 18.7387C35.1146 19.107 34.7327 19.2912 34.3674 19.2912H33.7696C33.371 19.2912 33.0223 19.1531 32.7234 18.8768C32.4245 18.6006 32.2086 18.2936 32.0758 17.956C32.0426 17.8332 32.0094 17.6951 31.9761 17.5417V15.4698H19.5218V17.5417C19.4886 17.6951 19.4553 17.8332 19.4221 17.956C19.2893 18.3243 19.0817 18.639 18.7994 18.8998C18.5171 19.1607 18.1601 19.2912 17.7283 19.2912H17.1305C16.6988 19.2912 16.3168 19.107 15.9847 18.7387C15.6858 18.4625 15.4865 18.1095 15.3869 17.6798C15.3537 17.557 15.3371 17.1426 15.3371 16.4367V15.4698H14.1913ZM40.2459 26.98H11.2521V33.9321L11.3019 40.8842C11.4679 41.2832 11.6506 41.5825 11.8499 41.782C12.0491 41.9815 12.348 42.1426 12.7466 42.2654C12.9126 42.2961 17.2468 42.3115 25.749 42.3115C34.2511 42.3115 38.5853 42.2961 38.7513 42.2654C39.1167 42.1426 39.4073 41.9815 39.6231 41.782C39.839 41.5825 40.03 41.2832 40.196 40.8842L40.2459 33.9321V26.98ZM24.8522 30.8013C24.7194 30.8013 24.5367 30.8013 24.3042 30.8013C23.64 30.8013 23.2 30.832 22.9841 30.8934C22.7682 30.9548 22.4942 31.139 22.1621 31.4459C21.9296 31.6607 21.7968 31.8142 21.7636 31.9063C21.5643 32.4588 21.5643 33.0113 21.7636 33.5638C21.8632 33.8707 22.0957 34.1162 22.461 34.3004C22.8263 34.4846 23.2249 34.6073 23.6566 34.6687V36.6945C23.6566 38.0757 23.6732 38.8124 23.7064 38.9045C23.8725 39.2114 24.0219 39.4569 24.1548 39.6411C24.3209 39.856 24.5367 40.0401 24.8024 40.1936C25.3006 40.5005 25.8486 40.5312 26.4464 40.2857C26.9114 40.0708 27.2933 39.7639 27.5922 39.3649C27.6254 39.3035 27.6752 39.1807 27.7417 38.9965L27.7915 38.8584C27.8247 38.7663 27.8413 37.6307 27.8413 35.4514V32.2746C27.5756 31.8449 27.3763 31.5533 27.2435 31.3998C27.0442 31.185 26.7785 31.0315 26.4464 30.9394C26.1143 30.8474 25.5829 30.8013 24.8522 30.8013Z" fill="#339933"/>
</svg>
