<svg width="26" height="38" viewBox="0 0 26 38" fill="none" xmlns="http://www.w3.org/2000/svg">
<path d="M13.2226 4.84288e-08C14.4989 4.84288e-08 15.5525 0.212885 16.3836 0.638656L16.8288 0.821128C17.0662 0.912365 17.2295 0.988395 17.3185 1.04922C18.1199 1.53581 18.7728 2.0072 19.2774 2.46339C19.871 3.0108 20.3756 3.63425 20.7911 4.33373C21.266 5.15486 21.6073 5.89996 21.8151 6.56903C22.1119 7.48139 22.2603 8.45458 22.2603 9.4886C22.2603 11.7087 21.637 13.6094 20.3904 15.1909L20.2123 15.4646C19.9749 15.7687 19.8116 15.9664 19.7226 16.0576C18.9509 16.8483 18.1199 17.4718 17.2295 17.928C16.5468 18.2929 15.9384 18.5362 15.4041 18.6579C14.7215 18.8403 13.9201 18.9316 13 18.9316C12.347 18.9316 11.8796 18.9164 11.5976 18.886C11.3156 18.8555 10.9669 18.7795 10.5514 18.6579C8.14726 17.9584 6.29224 16.4986 4.9863 14.2785C4.57078 13.579 4.25913 12.8339 4.05137 12.0432C3.84361 11.2221 3.73973 10.2793 3.73973 9.21489C3.73973 7.84634 4.00685 6.59944 4.5411 5.47419C4.9863 4.53141 5.63927 3.61905 6.5 2.73709C7.36073 1.85514 8.26598 1.20128 9.21575 0.77551C10.3733 0.258503 11.7089 4.84288e-08 13.2226 4.84288e-08ZM12.9555 3.78631C12.8368 3.78631 12.6735 3.80152 12.4658 3.83193H12.1986C11.6644 3.83193 11.1153 3.98399 10.5514 4.28812C10.2546 4.501 9.83904 4.82033 9.30479 5.2461L9.21575 5.33733C8.68151 5.79352 8.29566 6.32573 8.05822 6.93397L7.92466 7.29892C7.74658 7.66387 7.62785 7.95278 7.56849 8.16567C7.47945 8.5002 7.43493 8.83473 7.43493 9.16927C7.43493 11.3894 8.25114 13.062 9.88356 14.1873C10.8333 14.8259 11.8721 15.1453 13 15.1453C13.7717 15.1453 14.484 15.0084 15.137 14.7347C15.5525 14.5218 16.0571 14.1873 16.6507 13.7311C17.2443 13.2749 17.7118 12.6515 18.0531 11.8607C18.3944 11.07 18.5651 10.1729 18.5651 9.16927C18.5651 8.83473 18.5205 8.5002 18.4315 8.16567C18.3721 7.98319 18.2683 7.70948 18.1199 7.34454L17.9418 6.93397C17.7637 6.47779 17.3927 5.96078 16.8288 5.38295C16.3242 4.86595 15.79 4.48579 15.226 4.2425C14.5731 3.93838 13.8162 3.78631 12.9555 3.78631ZM13.2226 22.7635C11.9463 22.7635 10.4772 22.7787 8.81507 22.8091H8.4589C7.8653 22.8091 7.22717 22.9308 6.54452 23.1741C6.129 23.3261 5.59475 23.5694 4.94178 23.904C2.98288 24.9076 1.54338 26.5802 0.623288 28.922C0.385845 29.5606 0.222603 30.1689 0.133562 30.7467C0.0742009 31.0508 0.0445205 31.3397 0.0445205 31.6134C0.0148402 32.0088 0 32.7083 0 33.7119C0 35.3846 0.0148402 36.2817 0.0445205 36.4034C0.222603 36.9204 0.460046 37.3157 0.756849 37.5894C1.14269 37.9544 1.61758 38.076 2.18151 37.9544C2.59703 37.8631 2.9161 37.6959 3.1387 37.4526C3.3613 37.2093 3.5468 36.8747 3.69521 36.449C3.72489 36.3273 3.73973 35.5062 3.73973 33.9856C3.73973 32.7387 3.78425 31.7959 3.87329 31.1573C3.99201 30.397 4.20719 29.7583 4.51884 29.2413C4.83048 28.7243 5.31279 28.2073 5.96575 27.6903C6.5 27.2949 7.27169 26.9604 8.28082 26.6867C8.4589 26.6563 10.032 26.6411 13 26.6411C15.968 26.6411 17.5411 26.6563 17.7192 26.6867C18.9064 26.9908 19.871 27.5078 20.613 28.2377C21.355 28.9676 21.8744 29.9256 22.1712 31.1116C22.2009 31.2637 22.2306 31.8567 22.2603 32.8908V33.94C22.2603 34.974 22.2751 35.6659 22.3048 36.0156C22.3345 36.3653 22.3938 36.6923 22.4829 36.9964C22.5719 37.3005 22.8242 37.559 23.2397 37.7719C23.6553 37.9848 24.0634 38.038 24.464 37.9316C24.8647 37.8251 25.1764 37.6579 25.399 37.4298C25.6216 37.2017 25.8071 36.8595 25.9555 36.4034C25.9852 36.2817 26 35.3998 26 33.7575C26 32.6323 25.9926 31.9176 25.9777 31.6134C25.9629 31.3093 25.911 30.9748 25.8219 30.6098L25.6884 29.9712C25.3916 28.4202 24.7089 27.0516 23.6404 25.8655C22.661 24.8315 21.4441 24.0104 19.9897 23.4022C19.3961 23.1589 18.7877 22.9916 18.1644 22.9004H18.0753C17.8082 22.8395 17.4669 22.8091 17.0514 22.8091C16.3984 22.7787 15.1221 22.7635 13.2226 22.7635Z" fill="#339933"/>
</svg>
